<?xml version="1.0" encoding="UTF-8" standalone="no"?>
<!DOCTYPE svg PUBLIC "-//W3C//DTD SVG 1.1//EN" "http://www.w3.org/Graphics/SVG/1.1/DTD/svg11.dtd">
<!-- Created with Vectornator (http://vectornator.io/) -->
<svg height="100%" stroke-miterlimit="10" style="fill-rule:nonzero;clip-rule:evenodd;stroke-linecap:round;stroke-linejoin:round;" version="1.1" viewBox="0 0 500 500" width="100%" xml:space="preserve" xmlns="http://www.w3.org/2000/svg" xmlns:xlink="http://www.w3.org/1999/xlink">
<defs/>
<g id="Page-1">
<g opacity="1">
<path d="M41.7557 38.7852C18.8367 38.7852 0.280469 57.3131 0.280469 80.1888L0.280469 337.421C0.280469 395.492 47.3572 442.506 105.545 442.506L278.752 442.506C336.938 442.506 384.052 395.492 384.052 337.421L384.052 316.433C426.884 283.937 498.127 260.198 498.127 194.049C498.127 148.301 460.983 111.242 415.141 111.242C404.144 111.242 393.695 113.326 384.052 117.259L384.052 80.1888C384.052 57.3131 365.456 38.7852 342.541 38.7852L41.7557 38.7852ZM415.141 162.996C432.361 162.996 446.265 176.866 446.265 194.049C446.265 226.033 413.92 238.46 384.052 257.193L384.052 194.049C384.052 176.865 397.924 162.996 415.141 162.996Z" fill="#767676" fill-rule="nonzero" opacity="1" stroke="#000000" stroke-linecap="butt" stroke-linejoin="miter" stroke-opacity="0" stroke-width="1"/>
</g>
<path d="M192.051 302.904C188.829 307.901 185.08 311.353 180.806 313.26C176.532 315.167 169.168 316.12 158.713 316.12L144.115 316.12C137.605 316.12 133.512 316.663 131.835 317.748C130.158 318.833 129.024 320.888 128.432 323.912C128.235 324.636 128.038 325.721 127.841 327.167C126.723 334.598 123.073 338.313 116.892 338.313C113.868 338.313 111.435 337.228 109.594 335.058C107.752 332.888 106.832 329.995 106.832 326.378C106.832 321.775 107.588 317.32 109.1 313.013C110.613 308.706 112.684 305.139 115.314 302.312C118.142 299.221 121.791 297.035 126.262 295.753C130.734 294.47 138.394 293.829 149.244 293.829L160.685 293.829C172.521 293.829 179.327 288.372 181.102 277.456C181.234 276.996 181.3 276.667 181.3 276.47C181.826 273.314 182.943 270.979 184.653 269.467C186.363 267.955 188.829 267.199 192.051 267.199C194.878 267.199 197.114 267.84 198.758 269.122C200.401 270.404 201.585 272.459 202.308 275.286C202.703 276.536 203.13 278.344 203.591 280.711C205.234 289.457 211.744 293.829 223.12 293.829L234.857 293.829C244.918 293.829 251.97 294.323 256.014 295.309C260.058 296.295 263.592 297.972 266.617 300.339C269.97 303.101 272.584 306.8 274.458 311.435C276.332 316.071 277.269 321.184 277.269 326.773C277.269 330.258 276.365 333.052 274.557 335.157C272.749 337.261 270.365 338.313 267.406 338.313C261.225 338.313 257.51 334.335 256.26 326.378C256.195 325.655 256.129 325.129 256.063 324.8C255.537 321.512 254.337 319.244 252.463 317.994C250.589 316.745 246.331 316.12 239.69 316.12L225.191 316.12C215.328 316.12 208.095 315.134 203.492 313.161C198.889 311.189 195.075 307.769 192.051 302.904Z" fill="#31ff81" opacity="1" stroke="none"/>
</g>
</svg>
